<svg width="180" height="40" viewBox="0 0 180 40" fill="none" xmlns="http://www.w3.org/2000/svg">
<path d="M31.6129 4.29365C36.6936 7.86507 40 13.7063 40 20.3174C40 31.1746 31.0645 39.9761 20.0403 40C9.03227 40.0238 0.0161437 31.1904 1.47191e-05 20.3492C-0.0080498 13.7381 3.2984 7.88094 8.37098 4.30158C9.31453 3.64285 10.629 3.92063 11.1936 4.91269L12.4678 7.14285C12.9436 7.97618 12.7178 9.03174 11.9355 9.60316C8.58872 12.0476 6.45163 15.9206 6.45163 20.3095C6.44356 27.6349 12.4597 33.6508 20 33.6508C27.3871 33.6508 33.5968 27.7619 33.5484 20.2301C33.5242 16.119 31.5565 12.1508 28.0565 9.59523C27.2742 9.0238 27.0565 7.96824 27.5323 7.14285L28.8065 4.91269C29.371 3.92857 30.6774 3.63492 31.6129 4.29365ZM23.2258 20.9524V1.90476C23.2258 0.849205 22.3629 0 21.2903 0H18.7097C17.6371 0 16.7742 0.849205 16.7742 1.90476V20.9524C16.7742 22.0079 17.6371 22.8571 18.7097 22.8571H21.2903C22.3629 22.8571 23.2258 22.0079 23.2258 20.9524Z" fill="#D2000A"/>
<path d="M56.448 28C56.272 28 56.128 27.944 56.016 27.832C55.92 27.72 55.872 27.576 55.872 27.4V11.8C55.872 11.624 55.928 11.48 56.04 11.368C56.152 11.256 56.296 11.2 56.472 11.2H58.632C58.808 11.2 58.944 11.256 59.04 11.368C59.152 11.48 59.208 11.624 59.208 11.8V22.816L67.104 11.584C67.28 11.328 67.512 11.2 67.8 11.2H69.792C69.968 11.2 70.104 11.256 70.2 11.368C70.312 11.48 70.368 11.624 70.368 11.8V27.424C70.368 27.584 70.312 27.72 70.2 27.832C70.104 27.944 69.968 28 69.792 28H67.632C67.456 28 67.312 27.952 67.2 27.856C67.088 27.744 67.032 27.6 67.032 27.424V16.624L59.16 27.616C59.064 27.744 58.968 27.84 58.872 27.904C58.776 27.968 58.64 28 58.464 28H56.448ZM78.3784 28C78.2184 28 78.0824 27.944 77.9704 27.832C77.8584 27.72 77.8024 27.584 77.8024 27.424V14.152H73.3624C73.2024 14.152 73.0664 14.096 72.9544 13.984C72.8424 13.872 72.7864 13.736 72.7864 13.576V11.8C72.7864 11.624 72.8344 11.48 72.9304 11.368C73.0424 11.256 73.1864 11.2 73.3624 11.2H85.6024C85.7784 11.2 85.9224 11.256 86.0344 11.368C86.1464 11.48 86.2024 11.624 86.2024 11.8V13.576C86.2024 13.736 86.1464 13.872 86.0344 13.984C85.9224 14.096 85.7784 14.152 85.6024 14.152H81.1864V27.424C81.1864 27.584 81.1304 27.72 81.0184 27.832C80.9064 27.944 80.7624 28 80.5864 28H78.3784ZM100.602 28.24C98.394 28.24 96.682 27.672 95.466 26.536C94.266 25.4 93.626 23.8 93.546 21.736C93.53 21.304 93.522 20.6 93.522 19.624C93.522 18.632 93.53 17.912 93.546 17.464C93.626 15.416 94.274 13.824 95.49 12.688C96.722 11.536 98.426 10.96 100.602 10.96C102.026 10.96 103.266 11.208 104.322 11.704C105.378 12.184 106.194 12.848 106.77 13.696C107.346 14.528 107.65 15.472 107.682 16.528V16.576C107.682 16.704 107.626 16.816 107.514 16.912C107.418 16.992 107.306 17.032 107.178 17.032H104.898C104.706 17.032 104.562 16.992 104.466 16.912C104.37 16.832 104.29 16.68 104.226 16.456C103.97 15.448 103.546 14.744 102.954 14.344C102.362 13.928 101.57 13.72 100.578 13.72C98.274 13.72 97.074 15.008 96.978 17.584C96.962 18.016 96.954 18.68 96.954 19.576C96.954 20.472 96.962 21.152 96.978 21.616C97.074 24.192 98.274 25.48 100.578 25.48C101.57 25.48 102.362 25.272 102.954 24.856C103.562 24.44 103.986 23.736 104.226 22.744C104.274 22.52 104.346 22.368 104.442 22.288C104.554 22.208 104.706 22.168 104.898 22.168H107.178C107.322 22.168 107.442 22.216 107.538 22.312C107.65 22.408 107.698 22.528 107.682 22.672C107.65 23.728 107.346 24.68 106.77 25.528C106.194 26.36 105.378 27.024 104.322 27.52C103.266 28 102.026 28.24 100.602 28.24ZM115.616 28.24C113.84 28.24 112.424 27.728 111.368 26.704C110.328 25.664 109.776 24.208 109.712 22.336L109.688 21.736L109.712 21.136C109.792 19.312 110.352 17.88 111.392 16.84C112.448 15.8 113.856 15.28 115.616 15.28C117.504 15.28 118.96 15.856 119.984 17.008C121.024 18.16 121.544 19.696 121.544 21.616V22.12C121.544 22.28 121.488 22.416 121.376 22.528C121.264 22.64 121.12 22.696 120.944 22.696H112.976V22.888C113.008 23.768 113.248 24.512 113.696 25.12C114.16 25.712 114.792 26.008 115.592 26.008C116.536 26.008 117.296 25.64 117.872 24.904C118.016 24.728 118.128 24.616 118.208 24.568C118.304 24.52 118.44 24.496 118.616 24.496H120.68C120.824 24.496 120.944 24.544 121.04 24.64C121.152 24.72 121.208 24.824 121.208 24.952C121.208 25.336 120.976 25.792 120.512 26.32C120.064 26.832 119.416 27.28 118.568 27.664C117.72 28.048 116.736 28.24 115.616 28.24ZM118.28 20.68V20.608C118.28 19.664 118.04 18.904 117.56 18.328C117.096 17.752 116.448 17.464 115.616 17.464C114.784 17.464 114.136 17.752 113.672 18.328C113.208 18.904 112.976 19.664 112.976 20.608V20.68H118.28ZM124.692 32.56C124.532 32.56 124.396 32.504 124.284 32.392C124.172 32.296 124.116 32.16 124.116 31.984V16.096C124.116 15.92 124.172 15.784 124.284 15.688C124.396 15.576 124.532 15.52 124.692 15.52H126.588C126.764 15.52 126.9 15.576 126.996 15.688C127.108 15.784 127.164 15.92 127.164 16.096V17.056C128.06 15.872 129.34 15.28 131.004 15.28C132.62 15.28 133.86 15.792 134.724 16.816C135.588 17.824 136.052 19.192 136.116 20.92C136.132 21.112 136.14 21.392 136.14 21.76C136.14 22.144 136.132 22.432 136.116 22.624C136.052 24.304 135.588 25.664 134.724 26.704C133.86 27.728 132.62 28.24 131.004 28.24C129.388 28.24 128.156 27.672 127.308 26.536V31.984C127.308 32.16 127.252 32.296 127.14 32.392C127.044 32.504 126.908 32.56 126.732 32.56H124.692ZM130.116 25.672C131.844 25.672 132.764 24.608 132.876 22.48C132.892 22.32 132.9 22.08 132.9 21.76C132.9 21.44 132.892 21.2 132.876 21.04C132.764 18.912 131.844 17.848 130.116 17.848C129.188 17.848 128.5 18.144 128.052 18.736C127.604 19.328 127.356 20.056 127.308 20.92L127.284 21.832L127.308 22.768C127.34 23.568 127.588 24.256 128.052 24.832C128.532 25.392 129.22 25.672 130.116 25.672ZM139.41 28C139.25 28 139.114 27.944 139.002 27.832C138.89 27.72 138.834 27.584 138.834 27.424V16.096C138.834 15.936 138.89 15.8 139.002 15.688C139.114 15.576 139.25 15.52 139.41 15.52H144.738C146.386 15.52 147.626 15.824 148.458 16.432C149.306 17.04 149.73 17.888 149.73 18.976C149.73 19.616 149.61 20.128 149.37 20.512C149.13 20.88 148.77 21.208 148.29 21.496C148.85 21.752 149.282 22.136 149.586 22.648C149.906 23.16 150.066 23.736 150.066 24.376C150.066 25.544 149.634 26.44 148.77 27.064C147.906 27.688 146.65 28 145.002 28H139.41ZM144.69 20.608C145.33 20.608 145.834 20.48 146.202 20.224C146.57 19.952 146.754 19.56 146.754 19.048C146.754 18.552 146.578 18.2 146.226 17.992C145.874 17.784 145.362 17.68 144.69 17.68H141.906V20.608H144.69ZM144.786 25.84C145.442 25.84 145.954 25.72 146.322 25.48C146.706 25.224 146.898 24.848 146.898 24.352C146.898 23.824 146.722 23.44 146.37 23.2C146.034 22.96 145.506 22.84 144.786 22.84H141.906V25.84H144.786ZM164.202 15.52C164.346 15.52 164.474 15.576 164.586 15.688C164.698 15.784 164.754 15.904 164.754 16.048V27.424C164.754 27.584 164.698 27.72 164.586 27.832C164.474 27.944 164.338 28 164.178 28H162.186C162.026 28 161.89 27.944 161.778 27.832C161.666 27.72 161.61 27.584 161.61 27.424V19.72L155.85 27.616C155.706 27.872 155.49 28 155.202 28H153.378C153.234 28 153.106 27.952 152.994 27.856C152.882 27.744 152.826 27.608 152.826 27.448V16.096C152.826 15.936 152.882 15.8 152.994 15.688C153.106 15.576 153.242 15.52 153.402 15.52H155.394C155.57 15.52 155.706 15.576 155.802 15.688C155.914 15.784 155.97 15.92 155.97 16.096V23.824L161.73 15.904C161.906 15.648 162.122 15.52 162.378 15.52H164.202ZM173.179 28.24C171.419 28.24 170.011 27.752 168.955 26.776C167.915 25.8 167.363 24.448 167.299 22.72L167.275 21.76L167.299 20.8C167.363 19.072 167.915 17.72 168.955 16.744C170.011 15.768 171.419 15.28 173.179 15.28C174.427 15.28 175.483 15.504 176.347 15.952C177.227 16.4 177.875 16.952 178.291 17.608C178.723 18.248 178.955 18.856 178.987 19.432C179.003 19.592 178.947 19.728 178.819 19.84C178.707 19.952 178.571 20.008 178.411 20.008H176.299C176.139 20.008 176.011 19.976 175.915 19.912C175.835 19.832 175.755 19.704 175.675 19.528C175.435 18.904 175.115 18.456 174.715 18.184C174.331 17.912 173.835 17.776 173.227 17.776C172.411 17.776 171.771 18.04 171.307 18.568C170.843 19.08 170.595 19.864 170.563 20.92L170.539 21.808L170.563 22.6C170.627 24.696 171.515 25.744 173.227 25.744C173.851 25.744 174.355 25.608 174.739 25.336C175.123 25.064 175.435 24.616 175.675 23.992C175.755 23.816 175.835 23.696 175.915 23.632C176.011 23.552 176.139 23.512 176.299 23.512H178.411C178.571 23.512 178.707 23.568 178.819 23.68C178.947 23.792 179.003 23.928 178.987 24.088C178.955 24.648 178.731 25.248 178.315 25.888C177.899 26.528 177.259 27.08 176.395 27.544C175.531 28.008 174.459 28.24 173.179 28.24Z" fill="black"/>
</svg>
